<?xml version="1.0" encoding="UTF-8" standalone="no"?>
<svg
   xmlns:dc="http://purl.org/dc/elements/1.1/"
   xmlns:cc="http://creativecommons.org/ns#"
   xmlns:rdf="http://www.w3.org/1999/02/22-rdf-syntax-ns#"
   xmlns:svg="http://www.w3.org/2000/svg"
   xmlns="http://www.w3.org/2000/svg"
   xmlns:xlink="http://www.w3.org/1999/xlink"
   xmlns:sodipodi="http://sodipodi.sourceforge.net/DTD/sodipodi-0.dtd"
   xmlns:inkscape="http://www.inkscape.org/namespaces/inkscape"
   width="585"
   height="457"
   id="svg2"
   version="1.1">
  <g
     inkscape:label="Layer 1"
     inkscape:groupmode="layer"
     id="layer1"
     transform="translate(-321.12923,-104.4297)">
    <path
       style="fill:#140f10;fill-rule:nonzero;stroke:none"
       d="m 453.26,104.57518 c -56.13037,1.5981 -101.54704,8.55327 -111.57613,19.51194 -8.90387,9.58889 -20.19684,17.68546 -20.54744,30.69903 -0.383,12.76877 14.61166,13.91026 23.62144,13.80426 9.13227,0 17.33496,-0.605 17.22906,-6.05838 0,-7.41178 -11.97797,-5.91949 -11.97797,-13.34756 0,-8.65929 46.43559,-10.71408 69.60052,-10.71408 199.21271,-0.687 428.43955,137.25236 428.77405,254.20187 0.383,90.93888 -117.96881,111.36392 -183.23146,111.48642 -23.16483,0.08 -45.75098,-2.40548 -67.08923,-6.39258 -0.91399,-29.10082 -2.63379,-89.79748 -3.42459,-128.13648 7.53418,-0.08 14.48916,-0.08 20.65355,-0.08 48.26208,-0.146 111.69842,16.88595 111.80422,28.06723 0,9.69808 -16.87816,16.31556 -16.87816,25.55804 0.08,6.84508 15.63087,5.70409 29.10073,6.61678 2.3891,0.145 29.76943,-15.05856 29.54103,-39.0212 0,-31.83163 -39.8147,-69.60023 -169.54918,-69.25613 -1.82709,0 -3.65299,0.08 -5.58549,0.08 -1.2745,-35.82772 -6.51479,-92.18638 -26.81773,-92.18638 -16.87836,0.08 -21.79505,62.17235 -23.27085,96.52427 -72.69082,10.83627 -137.37455,40.4996 -137.26865,69.60053 0,23.84973 52.03726,83.96729 136.12716,120.4799 1.47449,26.94013 6.62088,45.52248 30.57652,45.41658 17.45726,0 23.27095,-12.78517 25.21974,-26.23873 27.15204,6.95508 56.70936,10.94228 87.97109,10.83618 122.07799,-0.383 220.20035,-65.49105 219.86615,-154.95403 C 905.74538,271.15516 663.78218,98.760089 453.26,104.57378 z m -32.85972,298.37085 c 0,-20.88184 63.55865,-28.75022 122.32289,-31.71832 -0.45699,32.75372 -0.91399,79.87441 -0.83999,111.24183 -72.22673,-25.44793 -121.4042,-65.94764 -121.5156,-79.52351"
       id="path10342" />
  </g>
</svg>
